<svg id="Capa_1" enable-background="new 0 0 512 512" height="512" viewBox="0 0 512 512" width="512" xmlns="http://www.w3.org/2000/svg"><g><g><g><path d="m318.397 149.667h-30v-38.667l30-4.666z" fill="#f1d0a2"/></g><path d="m288.397 37v37l79.301 10.001 79.302-10.001v-37l-79.302-10.001z" fill="#8cc6fd"/><path d="m288.397 0h158.604v37h-158.604z" fill="#a079ff"/><path d="m288.397 74h158.604v37h-158.604z" fill="#04db7b"/></g><g><ellipse cx="154.667" cy="160" fill="#fdd902" rx="74.667" ry="74.667" transform="matrix(.23 -.973 .973 .23 -36.588 273.769)"/><path d="m154.667 249.667c-49.442 0-89.667-40.225-89.667-89.667s40.225-89.666 89.667-89.666 89.666 40.224 89.666 89.666-40.224 89.667-89.666 89.667zm0-149.333c-32.9 0-59.667 26.766-59.667 59.666s26.767 59.667 59.667 59.667 59.666-26.767 59.666-59.667-26.766-59.666-59.666-59.666z" fill="#fdb902"/></g><g><g><path d="m357.333 482h-51.373v-113.645h-33.96l-10.667 68.978 10.667 74.667h85.333z" fill="#efe2dd"/><path d="m238.04 368.355v113.645h-51.373v30h85.333v-143.645z" fill="#f7f0eb"/></g><g><path d="m416.167 250.045-20.008-105.045h-124.159l-10.667 68.333 10.667 64h96z" fill="#efe2dd"/><path d="m127.567 251.439c-.937 4.918-1.54 9.852-1.836 14.776l146.269 11.118v-132.333h-124.159z" fill="#f7f0eb"/></g><g><path d="m416.433 251.439-.265-1.394-42.792 12.28c-33.464 9.561-69.146 7.642-101.375-5.409l-10.667 63.084 10.666 68.333h31.151c34.48 0 66.862-15.235 88.845-41.799 21.982-26.564 30.888-61.225 24.437-95.095z" fill="#fd7cb7"/><path d="m270.438 256.284c-33.465-13.973-70.753-15.848-105.45-5.301l-16.503 5.017c-8.279 3.193-16.382 7.007-22.753 10.215-1.743 28.989 7.482 57.612 26.272 80.319 21.982 26.564 54.364 41.799 88.845 41.799h31.151v-131.416c-.521-.211-1.043-.416-1.562-.633z" fill="#fd93ef"/></g></g></g></svg>