<svg id="Capa_1" enable-background="new 0 0 511.999 511.999" height="512" viewBox="0 0 511.999 511.999" width="512" xmlns="http://www.w3.org/2000/svg"><g id="XMLID_82_"><ellipse id="XMLID_1993_" cx="255.999" cy="80.667" fill="#ff7d97" rx="70.667" ry="70.667" transform="matrix(.707 -.707 .707 .707 17.94 204.646)"/><ellipse id="XMLID_1991_" cx="317.166" cy="140.334" fill="#d5ea79" rx="70.667" ry="70.667" transform="matrix(.707 -.707 .707 .707 -6.335 265.373)"/><ellipse id="XMLID_1989_" cx="208.333" cy="153.667" fill="#66e0f7" rx="70.667" ry="70.667" transform="matrix(.969 -.246 .246 .969 -31.421 56.024)"/><path id="XMLID_1987_" d="m378.333 223.001-99.853 263.477c-7.843 20.695-37.118 20.695-44.96 0l-99.853-263.478h244.666z" fill="#ffcd69"/><path id="XMLID_1985_" d="m369.333 223.001h-226.667c-13.255 0-24-10.745-24-24 0-13.255 10.745-24 24-24h226.667c13.255 0 24 10.745 24 24 0 13.254-10.745 24-24 24z" fill="#ffda8f"/><g id="XMLID_485_"><path id="XMLID_609_" d="m403.333 199.001c0-10.518-4.802-19.935-12.328-26.177 4.481-10.188 6.828-21.25 6.828-32.49 0-38.575-27.224-70.896-63.464-78.801-4.343-17.921-14.653-33.745-29.544-45.082-4.394-3.345-10.668-2.496-14.014 1.899-3.345 4.394-2.495 10.669 1.899 14.014 9.373 7.136 16.334 16.626 20.273 27.42-22.426 1.148-43.119 11.481-57.47 28.514-13.278-9.611-29.574-15.297-47.181-15.297-4.297 0-8.514.346-12.631.996 1.792-16.572 10.222-31.533 23.76-41.765 4.406-3.33 5.279-9.601 1.949-14.007-3.33-4.405-9.601-5.278-14.007-1.949-20.226 15.285-31.886 38.516-32.063 63.809-28.072 12.636-47.675 40.854-47.675 73.583 0 4.799.433 9.559 1.267 14.241-11.924 5.288-20.267 17.23-20.267 31.092 0 12.216 6.479 22.944 16.178 28.939l99.324 262.083c5.06 13.35 17.554 21.977 31.831 21.977s26.772-8.626 31.831-21.977l99.325-262.083c9.701-5.996 16.179-16.724 16.179-28.939zm-57.981 82.808-48.809-48.808h67.306zm-56.75 149.743-16.881-16.881 37.481-37.481.001.001zm-87.735-59.449 42.569 42.569-19.171 19.171zm67.391-139.102 26.801 26.801-37.481 37.481-64.282-64.282zm-84.652 93.555-8.317-21.947 30.666-30.666 37.481 37.481-37.481 37.481zm-18.594-93.555 26.801 26.801-24.298 24.297-19.365-51.099h16.862zm55.086 130.047 37.481-37.481 37.48 37.48-37.481 37.481zm96.879-6.368-45.256-45.255 37.481-37.481 28.376 28.376zm.189-277.012c33.452 0 60.667 27.215 60.667 60.666 0 8.6-1.825 17.058-5.304 24.821-1.053-.099-2.117-.155-3.196-.155h-81.138c.526-3.74.804-7.523.804-11.333 0-19.665-7.082-37.701-18.817-51.713 11.474-14.061 28.59-22.286 46.984-22.286zm-108.833 13.333c33.452 0 60.667 27.215 60.667 60.667 0 3.826-.358 7.616-1.06 11.333h-119.217c-.702-3.717-1.057-7.508-1.057-11.333 0-33.452 27.215-60.667 60.667-60.667zm-65.667 92h226.667c7.72 0 14 6.28 14 14s-6.28 14-14 14h-226.667c-7.72 0-14-6.28-14-14s6.28-14 14-14zm126.463 297.934c-3.188 8.411-10.855 9.064-13.129 9.064s-9.941-.653-13.129-9.064l-10.832-28.581 25.54-25.539 23.25 23.25z"/><path id="XMLID_621_" d="m256.129 20c2.63 0 5.21-1.07 7.07-2.93s2.93-4.44 2.93-7.07-1.07-5.21-2.93-7.07-4.44-2.93-7.07-2.93c-2.64 0-5.21 1.07-7.07 2.93-1.87 1.86-2.93 4.44-2.93 7.07s1.06 5.21 2.93 7.07c1.86 1.86 4.43 2.93 7.07 2.93z"/></g></g></svg>