<svg id="Layer_1" enable-background="new 0 0 512 512" height="512" viewBox="0 0 512 512" width="512" xmlns="http://www.w3.org/2000/svg"><g><path d="m256.005 512h-.01c-3.55 0-6.93-.68-10.04-1.91-10.35-4.09-17.58-14.33-17.25-26.15l5.19-117.74 12.12-10.86 9.99-8.96 22.79 20.19 4.5 117.37c.43 15.37-11.91 28.06-27.29 28.06z" fill="#feaf82"/><path d="m256.005 512h-.01c-3.55 0-6.93-.68-10.04-1.91 10.35-4.09 17.57-14.33 17.24-26.15l-4.5-117.37-12.68-11.23 9.99-8.96 22.79 20.19 4.5 117.37c.43 15.37-11.91 28.06-27.29 28.06z" fill="#df9f7a"/><path d="m367.525 111.49-31.44 14.09-80.09 35.91-111.52-50c0-56.4 42.1-103.14 96.52-110.48 4.91-.67 9.91-1.01 15-1.01 61.5 0 111.53 50.01 111.53 111.49z" fill="#e9fbff"/><path d="m336.085 125.58v-15.54c0-55.7-41.39-101.74-95.09-109.03 4.91-.67 9.91-1.01 15-1.01 61.5 0 111.53 50.01 111.53 111.49z" fill="#d0edf5"/><path d="m367.525 111.49v136.81l-31.44 14.09-80.09 35.91-111.52-50v-136.81c15.83 0 24.12 4.46 31.44 8.4 6.58 3.55 12.27 6.61 24.32 6.61s17.74-3.06 24.32-6.61c7.32-3.94 15.61-8.4 31.44-8.4s24.12 4.46 31.44 8.4c6.58 3.55 12.27 6.61 24.32 6.61s17.74-3.06 24.33-6.61c7.32-3.94 15.61-8.4 31.44-8.4z" fill="#54c9eb"/><path d="m367.525 111.49v136.81l-31.44 14.09v-142.5c7.32-3.94 15.61-8.4 31.44-8.4z" fill="#34aac7"/><g><path d="m367.525 248.3v111.92c0 4.14-3.36 7.5-7.5 7.5-11.11 0-16.37 2.83-22.45 6.1-6.88 3.7-14.67 7.9-29.56 7.9s-22.69-4.2-29.56-7.9c-6.08-3.27-11.34-6.1-22.45-6.1h-.01c-11.11 0-16.37 2.83-22.45 6.1-6.87 3.7-14.67 7.9-29.56 7.9s-22.68-4.2-29.56-7.9c-6.08-3.27-11.34-6.1-22.45-6.1-4.14 0-7.5-3.36-7.5-7.5v-111.92c15.83 0 24.12 4.46 31.44 8.4 6.58 3.55 12.27 6.61 24.32 6.61s17.74-3.06 24.32-6.61c7.32-3.94 15.61-8.4 31.44-8.4s24.12 4.46 31.44 8.4c6.58 3.55 12.27 6.61 24.32 6.61s17.74-3.06 24.33-6.61c7.32-3.94 15.61-8.4 31.44-8.4z" fill="#f98562"/><path d="m367.525 248.3v111.92c0 4.14-3.36 7.5-7.5 7.5-11.11 0-16.37 2.83-22.45 6.1-6.88 3.7-14.67 7.9-29.56 7.9s-22.69-4.2-29.56-7.9c-6.08-3.27-11.34-6.1-22.45-6.1h-.01c-11.11 0-16.37 2.83-22.45 6.1-6.87 3.7-14.67 7.9-29.56 7.9s-22.68-4.2-29.56-7.9c-6.08-3.27-11.34-6.1-22.45-6.1-4.14 0-7.5-3.36-7.5-7.5v-18.14h171.63c11.04 0 19.98-8.95 19.98-19.98v-65.4c7.32-3.94 15.61-8.4 31.44-8.4z" fill="#f4604c"/></g></g></svg>